Coordinates
version=1
nRows=15
nColumns=26
inDegrees=yes

Units are S.I. units (second, meters, Newtons, ...)
Angles are in degrees.

endheader
time	pelvis_tilt	pelvis_list	pelvis_rotation	pelvis_tx	pelvis_ty	pelvis_tz	hip_flexion_r	hip_adduction_r	hip_rotation_r	knee_angle_r	knee_angle_r_beta	ankle_angle_r	subtalar_angle_r	mtp_angle_r	hip_flexion_l	hip_adduction_l	hip_rotation_l	knee_angle_l	knee_angle_l_beta	ankle_angle_l	subtalar_angle_l	mtp_angle_l	lumbar_extension	lumbar_bending	lumbar_rotation
      0.26666667	      6.67008224	      0.51038314	     -1.87392475	      0.29712132	      1.01433689	      0.10957493	     10.80566280	     -7.62921449	     -5.02644526	     60.54541633	     60.54541633	      1.93463370	      0.00000000	      0.00000000	      2.99692378	      0.37178079	    -12.82786238	     14.93483396	     14.93483396	      4.90982802	      0.00000000	      0.00000000	    -19.10646175	     -1.93015326	      2.29187284
      0.27500000	      6.55355715	      0.43253362	     -1.81252583	      0.30473056	      1.01502269	      0.10899716	     11.74732967	     -7.39434834	     -5.27044440	     59.56447012	     59.56447012	      2.64400786	      0.00000000	      0.00000000	      2.39929012	      0.41455423	    -12.66591332	     14.49469842	     14.49469842	      5.13987879	      0.00000000	      0.00000000	    -19.04124766	     -1.84347939	      2.21111254
      0.28333333	      6.40886298	      0.34668357	     -1.75853723	      0.31223248	      1.01561837	      0.10840249	     12.70970634	     -7.17856119	     -5.54444982	     58.44488942	     58.44488942	      3.06399675	      0.00000000	      0.00000000	      1.92256827	      0.42050607	    -12.44334505	     14.22439319	     14.22439319	      5.43248881	      0.00000000	      0.00000000	    -18.95757957	     -1.73986383	      2.14457042
      0.29166667	      6.33054395	      0.30743224	     -1.77023248	      0.31978560	      1.01620930	      0.10793201	     13.55642068	     -6.97924559	     -5.72306125	     57.17084306	     57.17084306	      3.44771400	      0.00000000	      0.00000000	      1.23105996	      0.53372714	    -12.34478947	     13.63906019	     13.63906019	      5.50266416	      0.00000000	      0.00000000	    -18.94461757	     -1.71602247	      2.12795963
      0.30000000	      6.20173341	      0.28953517	     -1.83399851	      0.32714844	      1.01653587	      0.10741904	     14.48795442	     -6.79472313	     -5.82130492	     55.82326833	     55.82326833	      3.72268533	      0.00000000	      0.00000000	      0.65617009	      0.64144888	    -12.23505311	     13.20093156	     13.20093156	      5.70725401	      0.00000000	      0.00000000	    -18.89187874	     -1.70857846	      2.13634551
      0.30833333	      6.06925919	      0.27367731	     -1.64156333	      0.33459899	      1.01674579	      0.10699629	     15.27305421	     -6.60097447	     -6.09092464	     54.29944656	     54.29944656	      3.86128228	      0.00000000	      0.00000000	      0.14386618	      0.71482035	    -11.84137587	     12.85727682	     12.85727682	      5.98170530	      0.00000000	      0.00000000	    -18.83037192	     -1.68353017	      1.91997170
      0.31666667	      6.14175362	      0.24054549	     -1.53816276	      0.34274715	      1.01745276	      0.10656207	     15.65479833	     -6.39995293	     -6.40509348	     52.42901576	     52.42901576	      3.94909205	      0.00000000	      0.00000000	     -0.74978564	      0.80683269	    -11.64816384	     12.27932230	     12.27932230	      6.08548280	      0.00000000	      0.00000000	    -18.93658290	     -1.64185180	      1.79169969
      0.32500000	      6.08250093	      0.20687111	     -1.41235502	      0.35053239	      1.01772672	      0.10602332	     16.16486339	     -6.18306263	     -6.60505635	     50.48089075	     50.48089075	      4.02270674	      0.00000000	      0.00000000	     -1.41805020	      0.88601855	    -11.36151715	     11.82944376	     11.82944376	      6.28976651	      0.00000000	      0.00000000	    -18.92225447	     -1.57904913	      1.64646698
      0.33333333	      5.99179015	      0.24686453	     -1.35686611	      0.35816910	      1.01771271	      0.10550552	     16.74101222	     -6.02099766	     -6.71663438	     48.50478601	     48.50478601	      4.09913112	      0.00000000	      0.00000000	     -2.05777899	      1.04476316	    -11.14891826	     11.36120272	     11.36120272	      6.51060286	      0.00000000	      0.00000000	    -18.89816960	     -1.58473379	      1.53314634
      0.34166667	      5.90220577	      0.31777063	     -1.30460217	      0.36577316	      1.01765287	      0.10498044	     17.23337599	     -5.87974356	     -6.77028460	     46.34218498	     46.34218498	      4.11908279	      0.00000000	      0.00000000	     -2.65081418	      1.22534036	    -10.96767421	     10.96546643	     10.96546643	      6.69898572	      0.00000000	      0.00000000	    -18.87063774	     -1.63701715	      1.45382283
      0.35000000	      5.74629368	      0.39603469	     -1.26144785	      0.37342674	      1.01740831	      0.10443741	     17.78656708	     -5.75356640	     -6.80734129	     44.12183864	     44.12183864	      4.06256039	      0.00000000	      0.00000000	     -3.13670781	      1.39855316	    -10.84846683	     10.65646658	     10.65646658	      6.95109302	      0.00000000	      0.00000000	    -18.77356751	     -1.67737240	      1.36547470
      0.35833333	      5.65355134	      0.49908872	     -1.17823077	      0.38118441	      1.01715012	      0.10404184	     18.11931882	     -5.60219062	     -6.77250064	     41.65901176	     41.65901176	      3.89827054	      0.00000000	      0.00000000	     -3.75576442	      1.59478187	    -10.64436432	     10.22113577	     10.22113577	      7.12365079	      0.00000000	      0.00000000	    -18.73510371	     -1.75748941	      1.22500878
      0.36666667	      5.50635657	      0.52278193	     -1.05957905	      0.38886306	      1.01670248	      0.10368018	     18.41842519	     -5.34631390	     -6.71701427	     39.01046460	     39.01046460	      3.73567278	      0.00000000	      0.00000000	     -4.09231312	      1.63099912	    -10.50172676	     10.23239953	     10.23239953	      7.51219451	      0.00000000	      0.00000000	    -18.65721525	     -1.73831711	      1.06713642
      0.37500000	      5.44470073	      0.59438911	     -0.95108057	      0.39674712	      1.01641492	      0.10341946	     18.53546546	     -5.16518340	     -6.68557553	     36.22830641	     36.22830641	      3.53185833	      0.00000000	      0.00000000	     -4.76602428	      1.77637973	    -10.30382327	      9.79415843	      9.79415843	      7.71075504	      0.00000000	      0.00000000	    -18.65417743	     -1.78915593	      0.92210902
      0.38333333	      5.33078455	      0.69818068	     -0.80501674	      0.40457019	      1.01581241	      0.10314194	     18.66885577	     -4.99053281	     -6.54020125	     33.37243897	     33.37243897	      3.25175614	      0.00000000	      0.00000000	     -5.27876374	      1.92348275	    -10.11720572	      9.53763994	      9.53763994	      7.96549761	      0.00000000	      0.00000000	    -18.60429651	     -1.85428694	      0.71975622
